<svg width="512" height="512" viewBox="0 0 512 512" fill="none" xmlns="http://www.w3.org/2000/svg">
<g clip-path="url(#clip0_303_12083)">
<path fill-rule="evenodd" clip-rule="evenodd" d="M0 256C0 114.615 114.615 0 256 0C397.385 0 512 114.615 512 256V368.18C512 408.98 512 429.38 506.136 445.741C496.046 473.89 473.89 496.046 445.741 506.136C429.38 512 408.98 512 368.18 512H302.373C306.825 509.042 310.977 505.668 314.773 501.934C366.703 499.627 436.953 493.7 448.248 478.48C466.506 453.88 514.846 293.173 488.004 262.61C470.609 242.804 437.704 226.666 430.472 252.015C428.124 260.244 431.602 265.705 435.08 271.166C438.559 276.627 442.037 282.088 439.687 290.318C437.618 297.561 433.866 300.546 430.121 303.525C426.359 306.518 422.606 309.504 420.575 316.794C418.282 325.03 421.189 330.294 424.121 335.6C427.003 340.817 429.908 346.076 427.914 354.243C426.052 361.871 422.115 365.168 418.177 368.464C414.24 371.761 410.303 375.057 408.44 382.686C406.538 390.479 409.599 395.35 412.633 400.178C416.012 405.556 419.358 410.882 415.779 420.134C412.528 428.539 376.183 431.709 339.167 432.729C334.373 391.17 299.066 358.902 256.222 358.902C213.388 358.902 178.088 391.154 173.279 432.698C135.823 431.645 99.3827 428.455 96.1641 420.134C92.585 410.882 95.9313 405.556 99.3105 400.178C102.345 395.35 105.405 390.479 103.503 382.686C101.641 375.057 97.7033 371.761 93.7659 368.464C89.8286 365.168 85.8912 361.871 84.0291 354.243C82.0355 346.076 84.9404 340.817 87.8225 335.6C90.7537 330.294 93.6613 325.03 91.3677 316.794C89.3376 309.504 85.5839 306.518 81.8221 303.525C78.0774 300.546 74.3247 297.561 72.2562 290.318C69.9062 282.088 73.3844 276.627 76.8629 271.166C80.3409 265.705 83.8192 260.244 81.4713 252.015C74.2391 226.666 41.3337 242.804 23.9388 262.61C-2.90314 293.173 45.4371 453.88 63.6947 478.48C74.8526 493.514 144.84 499.481 197.583 501.848C201.403 505.616 205.584 509.019 210.07 512H143.82C103.02 512 82.6199 512 66.2591 506.136C38.1102 496.046 15.9535 473.89 5.86419 445.741C0 429.38 0 408.98 0 368.18V256ZM94.4829 104.766C95.569 102.966 95.6919 100.651 94.6043 98.6773C92.9816 95.7319 89.2784 94.6597 86.333 96.2825C83.3877 97.9052 82.3155 101.608 83.9382 104.554C85.561 107.499 89.2641 108.571 92.2095 106.949C92.4352 106.824 92.65 106.688 92.8533 106.54L171.512 183.883C170.221 185.726 170.005 188.216 171.164 190.32C172.787 193.265 176.49 194.338 179.435 192.715C181.588 191.529 182.74 189.233 182.571 186.933L261.313 167.767C261.392 167.952 261.481 168.134 261.58 168.313C263.202 171.259 266.905 172.331 269.851 170.708L269.874 170.695L335.545 253.079C335.076 253.6 334.706 254.192 334.444 254.827C333.764 256.476 333.81 258.408 334.738 260.092C336.361 263.037 340.064 264.109 343.01 262.487C345.955 260.864 347.027 257.161 345.404 254.215C345.233 253.904 345.038 253.613 344.822 253.344L419.639 169.738C419.744 169.805 419.851 169.868 419.96 169.928C421.728 170.9 423.94 170.973 425.838 169.928C428.783 168.305 429.855 164.602 428.232 161.656C426.61 158.711 422.907 157.639 419.961 159.262C417.016 160.884 415.944 164.588 417.566 167.533C417.738 167.845 417.933 168.136 418.148 168.404L343.332 252.01C341.517 250.862 339.148 250.711 337.133 251.821L337.109 251.834L271.439 169.45C273.126 167.576 273.531 164.769 272.246 162.437C270.623 159.492 266.92 158.419 263.974 160.042C261.966 161.148 260.829 163.221 260.823 165.362C260.822 165.516 260.827 165.67 260.839 165.824L182.097 184.99C182.018 184.805 181.929 184.623 181.83 184.444C180.208 181.498 176.504 180.426 173.559 182.049C173.333 182.173 173.119 182.31 172.915 182.457L94.2561 105.114C94.3358 105.001 94.4115 104.884 94.4829 104.766Z" fill="#002538"/>
<path fill-rule="evenodd" clip-rule="evenodd" d="M256.5 500C289.913 500 317 472.913 317 439.5C317 406.087 289.913 379 256.5 379C223.087 379 196 406.087 196 439.5C196 472.913 223.087 500 256.5 500ZM256.5 480.099C234.078 480.099 215.901 461.922 215.901 439.5C215.901 417.078 234.078 398.901 256.5 398.901C278.922 398.901 297.099 417.078 297.099 439.5C297.099 461.922 278.922 480.099 256.5 480.099ZM263.211 418.829C259.804 425.016 253.007 437.952 251.922 444.533C251.205 448.878 251.928 454.9 252.401 457.994C252.527 458.816 253.523 459.084 254.045 458.437C256.01 456.001 259.663 451.159 261.229 447.043C263.597 440.817 264.612 426.35 264.977 419.332C265.031 418.294 263.712 417.918 263.211 418.829Z" fill="#002538"/>
<path d="M251.922 444.533L250.935 444.37L251.922 444.533ZM263.211 418.829L262.335 418.346L263.211 418.829ZM252.401 457.994L251.412 458.145L252.401 457.994ZM254.045 458.437L254.823 459.065L254.045 458.437ZM261.229 447.043L260.294 446.688L261.229 447.043ZM264.977 419.332L265.976 419.384L264.977 419.332ZM316 439.5C316 472.361 289.361 499 256.5 499V501C290.466 501 318 473.466 318 439.5H316ZM256.5 380C289.361 380 316 406.639 316 439.5H318C318 405.534 290.466 378 256.5 378V380ZM197 439.5C197 406.639 223.639 380 256.5 380V378C222.534 378 195 405.534 195 439.5H197ZM256.5 499C223.639 499 197 472.361 197 439.5H195C195 473.466 222.534 501 256.5 501V499ZM214.901 439.5C214.901 462.474 233.526 481.099 256.5 481.099V479.099C234.63 479.099 216.901 461.37 216.901 439.5H214.901ZM256.5 397.901C233.526 397.901 214.901 416.526 214.901 439.5H216.901C216.901 417.63 234.63 399.901 256.5 399.901V397.901ZM298.099 439.5C298.099 416.526 279.474 397.901 256.5 397.901V399.901C278.37 399.901 296.099 417.63 296.099 439.5H298.099ZM256.5 481.099C279.474 481.099 298.099 462.474 298.099 439.5H296.099C296.099 461.37 278.37 479.099 256.5 479.099V481.099ZM252.908 444.696C253.426 441.558 255.338 436.794 257.602 431.957C259.849 427.155 262.388 422.396 264.087 419.311L262.335 418.346C260.627 421.449 258.064 426.251 255.79 431.11C253.532 435.933 251.503 440.927 250.935 444.37L252.908 444.696ZM253.389 457.842C252.916 454.744 252.22 448.866 252.908 444.696L250.935 444.37C250.189 448.89 250.94 455.056 251.412 458.145L253.389 457.842ZM253.267 457.809C253.261 457.816 253.26 457.816 253.265 457.812C253.27 457.809 253.277 457.805 253.286 457.802C253.304 457.797 253.321 457.797 253.335 457.801C253.348 457.804 253.363 457.813 253.376 457.827C253.383 457.834 253.387 457.841 253.389 457.846C253.392 457.851 253.391 457.851 253.389 457.842L251.412 458.145C251.67 459.826 253.756 460.389 254.823 459.065L253.267 457.809ZM260.294 446.688C258.792 450.638 255.234 455.369 253.267 457.809L254.823 459.065C256.785 456.633 260.535 451.68 262.163 447.399L260.294 446.688ZM263.979 419.28C263.796 422.78 263.453 428.129 262.86 433.373C262.264 438.651 261.428 443.707 260.294 446.688L262.163 447.399C263.398 444.154 264.253 438.864 264.848 433.597C265.446 428.296 265.793 422.903 265.976 419.384L263.979 419.28ZM264.087 419.311C264.097 419.292 264.103 419.289 264.098 419.293C264.094 419.297 264.085 419.303 264.074 419.307C264.052 419.316 264.036 419.314 264.028 419.312C264.021 419.309 264.006 419.303 263.992 419.284C263.984 419.274 263.98 419.264 263.978 419.259C263.977 419.253 263.98 419.259 263.979 419.28L265.976 419.384C266.085 417.285 263.348 416.506 262.335 418.346L264.087 419.311Z" fill="#002538"/>
</g>
<defs>
<clipPath id="clip0_303_12083">
<rect width="512" height="512" fill="white"/>
</clipPath>
</defs>
</svg>
