<svg width="320" height="256" viewBox="0 0 320 256" fill="none" xmlns="http://www.w3.org/2000/svg">
<path fill-rule="evenodd" clip-rule="evenodd" d="M81.1636 96.5819C81.1636 55.4517 114.506 22.1091 155.636 22.1091C196.766 22.1091 230.109 55.4517 230.109 96.5819V129.216C230.109 141.085 230.109 147.02 228.403 151.779C225.468 159.968 219.022 166.413 210.834 169.349C206.074 171.055 200.14 171.055 188.27 171.055H169.127C170.422 170.194 171.63 169.213 172.734 168.126C187.841 167.455 208.277 165.731 211.563 161.303C216.874 154.147 230.937 107.396 223.128 98.5048C218.068 92.743 208.496 88.0483 206.392 95.4226C205.709 97.8165 206.721 99.4051 207.732 100.994C208.744 102.582 209.756 104.171 209.073 106.565C208.471 108.672 207.379 109.541 206.29 110.407C205.195 111.278 204.104 112.147 203.513 114.267C202.846 116.663 203.691 118.195 204.544 119.738C205.383 121.256 206.228 122.786 205.648 125.162C205.106 127.381 203.961 128.34 202.815 129.299C201.67 130.258 200.524 131.217 199.982 133.436C199.429 135.703 200.32 137.12 201.202 138.525C202.185 140.089 203.159 141.638 202.117 144.33C201.172 146.775 190.599 147.697 179.83 147.994C178.436 135.904 168.165 126.517 155.701 126.517C143.24 126.517 132.971 135.899 131.572 147.985C120.676 147.679 110.075 146.751 109.139 144.33C108.097 141.638 109.071 140.089 110.054 138.525C110.937 137.12 111.827 135.703 111.274 133.436C110.732 131.217 109.586 130.258 108.441 129.299C107.296 128.34 106.15 127.381 105.608 125.162C105.028 122.786 105.873 121.256 106.712 119.738C107.565 118.195 108.41 116.663 107.743 114.267C107.153 112.147 106.061 111.278 104.966 110.407C103.877 109.541 102.785 108.672 102.184 106.565C101.5 104.171 102.512 102.582 103.524 100.994C104.536 99.4051 105.547 97.8165 104.864 95.4226C102.76 88.0483 93.188 92.743 88.1276 98.5048C80.3191 107.396 94.3816 154.147 99.693 161.303C102.939 165.677 123.299 167.413 138.642 168.101C139.754 169.197 140.97 170.187 142.275 171.055H123.002C111.133 171.055 105.198 171.055 100.439 169.349C92.2501 166.413 85.8047 159.968 82.8695 151.779C81.1636 147.02 81.1636 141.085 81.1636 129.216V96.5819ZM108.65 52.5865C108.965 52.0629 109.001 51.3894 108.685 50.8152C108.213 49.9584 107.135 49.6466 106.279 50.1184C105.422 50.5906 105.11 51.6678 105.582 52.5248C106.054 53.3816 107.131 53.6934 107.988 53.2216C108.054 53.1852 108.116 53.1456 108.175 53.1026L131.058 75.6024C130.682 76.1385 130.62 76.8629 130.957 77.4749C131.429 78.3317 132.506 78.6438 133.363 78.1717C133.989 77.8267 134.324 77.1587 134.275 76.4896L157.182 70.9141C157.205 70.9679 157.231 71.0208 157.26 71.0729C157.731 71.9299 158.809 72.2418 159.666 71.7696L159.672 71.7659L178.777 95.7321C178.64 95.8837 178.533 96.0559 178.456 96.2406C178.259 96.7203 178.272 97.2824 178.542 97.7723C179.014 98.629 180.091 98.9408 180.948 98.469C181.805 97.9968 182.117 96.9196 181.645 96.0626C181.595 95.9721 181.538 95.8875 181.475 95.8092L203.24 71.4875C203.271 71.5069 203.302 71.5253 203.334 71.5427C203.848 71.8255 204.492 71.8467 205.044 71.5427C205.9 71.0706 206.212 69.9933 205.74 69.1363C205.268 68.2796 204.191 67.9677 203.334 68.4399C202.477 68.9117 202.165 69.9893 202.637 70.846C202.687 70.9368 202.744 71.0214 202.807 71.0994L181.042 95.4211C180.514 95.0872 179.825 95.0432 179.239 95.3662L179.232 95.3699L160.128 71.4037C160.618 70.8585 160.736 70.0419 160.362 69.3635C159.89 68.5068 158.813 68.1947 157.956 68.6668C157.372 68.9885 157.041 69.5916 157.039 70.2144C157.039 70.2592 157.041 70.304 157.044 70.3488L134.137 75.9244C134.114 75.8706 134.088 75.8176 134.06 75.7656C133.588 74.9085 132.51 74.5967 131.653 75.0688C131.588 75.1049 131.525 75.1448 131.466 75.1875L108.584 52.6877C108.607 52.6549 108.629 52.6208 108.65 52.5865Z" fill="#002538"/>
<path fill-rule="evenodd" clip-rule="evenodd" d="M155.782 167.564C165.502 167.564 173.382 159.684 173.382 149.964C173.382 140.244 165.502 132.364 155.782 132.364C146.062 132.364 138.182 140.244 138.182 149.964C138.182 159.684 146.062 167.564 155.782 167.564ZM155.782 161.774C149.259 161.774 143.971 156.486 143.971 149.964C143.971 143.441 149.259 138.153 155.782 138.153C162.305 138.153 167.593 143.441 167.593 149.964C167.593 156.486 162.305 161.774 155.782 161.774ZM157.734 143.95C156.743 145.75 154.766 149.513 154.45 151.428C154.242 152.692 154.452 154.444 154.589 155.344C154.626 155.583 154.916 155.661 155.068 155.473C155.639 154.764 156.702 153.355 157.158 152.158C157.846 150.347 158.142 146.138 158.248 144.097C158.264 143.795 157.88 143.685 157.734 143.95Z" fill="#002538"/>
<path d="M154.45 151.428L154.163 151.38L154.45 151.428ZM157.734 143.95L157.479 143.81L157.734 143.95ZM154.589 155.344L154.302 155.388L154.589 155.344ZM155.068 155.473L155.294 155.655L155.068 155.473ZM157.157 152.158L156.885 152.055L157.157 152.158ZM158.248 144.097L158.538 144.112L158.248 144.097ZM173.091 149.964C173.091 159.523 165.341 167.273 155.782 167.273V167.855C165.663 167.855 173.673 159.845 173.673 149.964H173.091ZM155.782 132.655C165.341 132.655 173.091 140.404 173.091 149.964H173.673C173.673 140.083 165.663 132.073 155.782 132.073V132.655ZM138.473 149.964C138.473 140.404 146.222 132.655 155.782 132.655V132.073C145.901 132.073 137.891 140.083 137.891 149.964H138.473ZM155.782 167.273C146.222 167.273 138.473 159.523 138.473 149.964H137.891C137.891 159.845 145.901 167.855 155.782 167.855V167.273ZM143.68 149.964C143.68 156.647 149.098 162.065 155.782 162.065V161.483C149.42 161.483 144.262 156.326 144.262 149.964H143.68ZM155.782 137.862C149.098 137.862 143.68 143.28 143.68 149.964H144.262C144.262 143.601 149.42 138.444 155.782 138.444V137.862ZM167.883 149.964C167.883 143.28 162.465 137.862 155.782 137.862V138.444C162.144 138.444 167.301 143.601 167.301 149.964H167.883ZM155.782 162.065C162.465 162.065 167.883 156.647 167.883 149.964H167.301C167.301 156.326 162.144 161.483 155.782 161.483V162.065ZM154.737 151.475C154.888 150.562 155.444 149.176 156.102 147.769C156.756 146.372 157.495 144.988 157.989 144.091L157.479 143.81C156.982 144.712 156.237 146.109 155.575 147.523C154.918 148.926 154.328 150.379 154.163 151.38L154.737 151.475ZM154.877 155.3C154.739 154.398 154.537 152.688 154.737 151.475L154.163 151.38C153.946 152.695 154.164 154.489 154.302 155.388L154.877 155.3ZM154.841 155.29C154.84 155.292 154.839 155.292 154.841 155.291C154.842 155.29 154.844 155.289 154.847 155.288C154.852 155.286 154.857 155.286 154.861 155.288C154.865 155.288 154.869 155.291 154.873 155.295C154.875 155.297 154.876 155.299 154.877 155.301C154.878 155.302 154.877 155.302 154.877 155.3L154.302 155.388C154.377 155.877 154.984 156.04 155.294 155.655L154.841 155.29ZM156.885 152.055C156.449 153.204 155.413 154.58 154.841 155.29L155.294 155.655C155.865 154.948 156.956 153.507 157.429 152.262L156.885 152.055ZM157.957 144.081C157.904 145.1 157.804 146.656 157.632 148.181C157.459 149.717 157.215 151.188 156.885 152.055L157.429 152.262C157.788 151.318 158.037 149.779 158.21 148.246C158.384 146.704 158.485 145.135 158.538 144.112L157.957 144.081ZM157.989 144.091C157.992 144.085 157.994 144.084 157.992 144.085C157.991 144.086 157.988 144.088 157.985 144.089C157.979 144.092 157.974 144.091 157.972 144.091C157.97 144.09 157.965 144.088 157.961 144.083C157.959 144.08 157.958 144.077 157.957 144.075C157.957 144.074 157.958 144.075 157.957 144.081L158.538 144.112C158.57 143.501 157.774 143.275 157.479 143.81L157.989 144.091Z" fill="#002538"/>
<path d="M24.9966 209.253C24.9966 210.102 25.3116 210.719 25.9416 211.102C26.5716 211.568 27.9138 212.047 29.968 212.54C32.1321 213.06 33.7071 213.773 34.6933 214.677C35.7068 215.581 36.2135 216.881 36.2135 218.58C36.2135 220.36 35.5424 221.798 34.2002 222.894C32.8853 223.99 31.1596 224.537 29.0231 224.537C25.9279 224.537 23.134 223.442 20.6414 221.25L22.7779 218.703C24.8597 220.484 26.9688 221.374 29.1052 221.374C30.1737 221.374 31.0365 221.141 31.6937 220.675C32.3511 220.182 32.6799 219.552 32.6799 218.785C32.6799 218.018 32.3785 217.416 31.776 216.977C31.2009 216.539 30.16 216.142 28.6534 215.786C26.0512 215.183 24.2433 214.471 23.2299 213.649C22.052 212.745 21.4631 211.362 21.4631 209.5C21.4631 207.692 22.1205 206.281 23.4353 205.268C24.7501 204.227 26.4347 203.706 28.489 203.706C31.2556 203.706 33.625 204.514 35.5971 206.13L33.7894 208.678C33.1866 208.13 32.3785 207.692 31.3653 207.363C30.3517 207.007 29.3519 206.829 28.3658 206.829C27.3523 206.829 26.5305 207.048 25.9005 207.486C25.2979 207.897 24.9966 208.486 24.9966 209.253ZM52.3372 224.291H49.4199V222.237C48.1324 223.771 46.4343 224.537 44.325 224.537C42.709 224.537 41.3804 224.086 40.3395 223.182C39.3263 222.25 38.8195 221.045 38.8195 219.566C38.8195 218.087 39.3673 216.964 40.4629 216.197C41.5584 215.43 43.065 215.046 44.9824 215.046H49.1733V214.471C49.1733 212.444 48.0367 211.431 45.7632 211.431C44.3386 211.431 42.8597 211.951 41.3257 212.992L39.8877 210.979C41.7778 209.5 43.8869 208.76 46.215 208.76C48.105 208.76 49.598 209.239 50.6935 210.198C51.7891 211.129 52.3372 212.54 52.3372 214.43V224.291ZM49.1322 217.306H45.5165C43.1884 217.306 42.0242 218.032 42.0242 219.484C42.0242 220.223 42.3119 220.799 42.887 221.209C43.4621 221.593 44.2703 221.785 45.3111 221.785C46.3794 221.785 47.2832 221.497 48.023 220.922C48.7625 220.319 49.1322 219.539 49.1322 218.58V217.306ZM60.0661 224.291H56.8614V209.007H60.0661V224.291ZM56.4503 204.487C56.4503 203.939 56.6421 203.473 57.0258 203.09C57.4365 202.679 57.9296 202.474 58.5047 202.474C59.0525 202.474 59.5183 202.679 59.9017 203.09C60.3127 203.473 60.5181 203.939 60.5181 204.487C60.5181 205.062 60.3127 205.555 59.9017 205.966C59.5183 206.349 59.0525 206.541 58.5047 206.541C57.9296 206.541 57.4502 206.336 57.0668 205.925C56.6557 205.542 56.4503 205.062 56.4503 204.487ZM67.9669 224.291H64.7622V202.967H67.9669V224.291ZM77.9221 224.537C75.4569 224.537 73.2381 223.771 71.2661 222.237L72.8274 219.73C74.5804 221.072 76.3061 221.743 78.0044 221.743C78.7165 221.743 79.278 221.579 79.689 221.25C80.1271 220.894 80.3462 220.456 80.3462 219.936C80.3462 219.169 79.333 218.484 77.3059 217.881C77.2512 217.854 77.1826 217.827 77.1005 217.799C77.0455 217.772 77.0045 217.758 76.9772 217.758C73.7999 216.909 72.2109 215.471 72.2109 213.444C72.2109 212.02 72.7453 210.883 73.8135 210.034C74.9091 209.185 76.3471 208.76 78.1277 208.76C79.8807 208.76 81.5514 209.28 83.1401 210.321L81.9488 212.704C80.7162 211.883 79.3603 211.472 77.881 211.472C76.1554 211.472 75.2925 212.02 75.2925 213.115C75.2925 213.581 75.4569 213.923 75.7856 214.142C76.1417 214.334 76.7168 214.526 77.5113 214.718C78.7165 215.046 79.7301 215.375 80.5519 215.704C81.0997 215.95 81.5788 216.21 81.9898 216.484C83.0307 217.197 83.5511 218.278 83.5511 219.73C83.5511 221.155 83.017 222.319 81.9488 223.223C80.9079 224.099 79.5657 224.537 77.9221 224.537ZM88.3287 207.24V204.199H98.1074V217.429C98.1074 219.703 97.5322 221.442 96.3817 222.648C95.2312 223.853 93.6835 224.455 91.7388 224.455C89.4106 224.455 87.4246 223.633 85.7813 221.99L87.7123 219.319C88.9996 220.552 90.2735 221.168 91.5334 221.168C92.4373 221.168 93.1907 220.867 93.7932 220.264C94.3959 219.662 94.697 218.785 94.697 217.635V207.24H88.3287ZM106.224 209.253C106.224 210.102 106.538 210.719 107.169 211.102C107.799 211.568 109.141 212.047 111.195 212.54C113.359 213.06 114.934 213.773 115.92 214.677C116.934 215.581 117.44 216.881 117.44 218.58C117.44 220.36 116.769 221.798 115.427 222.894C114.112 223.99 112.387 224.537 110.25 224.537C107.155 224.537 104.361 223.442 101.868 221.25L104.005 218.703C106.087 220.484 108.196 221.374 110.332 221.374C111.4 221.374 112.263 221.141 112.921 220.675C113.578 220.182 113.907 219.552 113.907 218.785C113.907 218.018 113.606 217.416 113.003 216.977C112.428 216.539 111.387 216.142 109.88 215.786C107.278 215.183 105.47 214.471 104.457 213.649C103.279 212.745 102.69 211.362 102.69 209.5C102.69 207.692 103.348 206.281 104.662 205.268C105.977 204.227 107.662 203.706 109.716 203.706C112.483 203.706 114.852 204.514 116.824 206.13L115.016 208.678C114.414 208.13 113.606 207.692 112.592 207.363C111.578 207.007 110.579 206.829 109.593 206.829C108.579 206.829 107.757 207.048 107.128 207.486C106.525 207.897 106.224 208.486 106.224 209.253ZM132.385 219.73L130.372 224.291H126.756L135.631 204.199H139.246L148.08 224.291H144.464L142.451 219.73H132.385ZM141.095 216.566L137.438 208.308L133.782 216.566H141.095ZM149.44 216.566C149.44 214.266 150.166 212.389 151.617 210.938C153.069 209.486 154.85 208.76 156.959 208.76C158.986 208.76 160.616 209.623 161.848 211.348V202.967H165.094V224.291H161.848V221.99C160.698 223.688 158.972 224.537 156.671 224.537C154.672 224.537 152.96 223.798 151.535 222.319C150.138 220.812 149.44 218.895 149.44 216.566ZM157.37 221.661C158.657 221.661 159.739 221.196 160.616 220.264C161.492 219.333 161.93 218.142 161.93 216.69C161.93 215.265 161.478 214.06 160.575 213.074C159.698 212.088 158.616 211.595 157.329 211.595C156.041 211.595 154.932 212.088 154.001 213.074C153.097 214.033 152.645 215.238 152.645 216.69C152.645 218.142 153.11 219.333 154.042 220.264C154.973 221.196 156.082 221.661 157.37 221.661ZM172.935 224.291H169.731V209.007H172.935V211.759C173.401 210.828 174.1 210.102 175.031 209.582C175.962 209.034 176.962 208.76 178.03 208.76C180.468 208.76 182.111 209.76 182.961 211.759C184.467 209.76 186.357 208.76 188.631 208.76C190.384 208.76 191.781 209.294 192.822 210.362C193.862 211.431 194.383 212.951 194.383 214.923V224.291H191.178V215.909C191.178 213.088 190 211.677 187.645 211.677C186.494 211.677 185.522 212.047 184.728 212.787C183.96 213.499 183.563 214.498 183.536 215.786V224.291H180.29V215.909C180.29 214.457 180.03 213.389 179.509 212.704C178.989 212.02 178.181 211.677 177.085 211.677C175.908 211.677 174.921 212.061 174.127 212.828C173.333 213.567 172.935 214.622 172.935 215.991V224.291ZM202.126 224.291H198.921V209.007H202.126V224.291ZM198.51 204.487C198.51 203.939 198.702 203.473 199.085 203.09C199.496 202.679 199.989 202.474 200.564 202.474C201.112 202.474 201.578 202.679 201.961 203.09C202.372 203.473 202.578 203.939 202.578 204.487C202.578 205.062 202.372 205.555 201.961 205.966C201.578 206.349 201.112 206.541 200.564 206.541C199.989 206.541 199.51 206.336 199.126 205.925C198.716 205.542 198.51 205.062 198.51 204.487ZM210.026 224.291H206.822V209.007H210.026V211.759C210.547 210.828 211.259 210.102 212.163 209.582C213.094 209.034 214.081 208.76 215.121 208.76C216.902 208.76 218.312 209.294 219.353 210.362C220.394 211.431 220.915 212.951 220.915 214.923V224.291H217.669V215.909C217.669 213.088 216.505 211.677 214.176 211.677C212.999 211.677 212.013 212.061 211.218 212.828C210.424 213.567 210.026 214.622 210.026 215.991V224.291ZM232.742 204.199C235.754 204.199 237.96 204.788 239.357 205.966C240.781 207.117 241.493 208.911 241.493 211.348C241.493 213.759 240.781 215.539 239.357 216.69C237.932 217.813 235.741 218.374 232.783 218.374H229.249V224.291H225.839V204.199H232.742ZM233.152 215.334C234.96 215.334 236.22 214.991 236.932 214.307C237.672 213.622 238.042 212.54 238.042 211.061C238.042 209.691 237.617 208.719 236.768 208.144C235.919 207.568 234.549 207.281 232.659 207.281H229.249V215.334H233.152ZM257.448 224.291H254.531V222.237C253.243 223.771 251.545 224.537 249.436 224.537C247.82 224.537 246.491 224.086 245.45 223.182C244.437 222.25 243.93 221.045 243.93 219.566C243.93 218.087 244.478 216.964 245.574 216.197C246.669 215.43 248.176 215.046 250.093 215.046H254.284V214.471C254.284 212.444 253.147 211.431 250.874 211.431C249.45 211.431 247.97 211.951 246.436 212.992L244.998 210.979C246.888 209.5 248.998 208.76 251.326 208.76C253.216 208.76 254.709 209.239 255.804 210.198C256.9 211.129 257.448 212.54 257.448 214.43V224.291ZM254.243 217.306H250.628C248.299 217.306 247.135 218.032 247.135 219.484C247.135 220.223 247.423 220.799 247.998 221.209C248.573 221.593 249.381 221.785 250.422 221.785C251.49 221.785 252.394 221.497 253.134 220.922C253.873 220.319 254.243 219.539 254.243 218.58V217.306ZM265.177 224.291H261.972V209.007H265.177V211.759C265.697 210.828 266.41 210.102 267.313 209.582C268.245 209.034 269.231 208.76 270.272 208.76C272.052 208.76 273.463 209.294 274.504 210.362C275.544 211.431 276.065 212.951 276.065 214.923V224.291H272.819V215.909C272.819 213.088 271.655 211.677 269.327 211.677C268.149 211.677 267.163 212.061 266.368 212.828C265.574 213.567 265.177 214.622 265.177 215.991V224.291ZM294.752 218.046H282.756C282.838 219.141 283.345 220.031 284.276 220.716C285.207 221.401 286.289 221.743 287.522 221.743C289.467 221.743 290.918 221.141 291.878 219.936L293.725 221.949C292.081 223.675 289.933 224.537 287.275 224.537C285.084 224.537 283.249 223.812 281.77 222.36C280.291 220.908 279.551 218.991 279.551 216.608C279.551 214.279 280.304 212.389 281.811 210.938C283.317 209.486 285.139 208.76 287.275 208.76C289.412 208.76 291.191 209.404 292.617 210.691C294.042 211.979 294.752 213.691 294.752 215.827V218.046ZM291.549 215.498C291.549 214.266 291.151 213.293 290.357 212.581C289.59 211.869 288.59 211.513 287.358 211.513C286.125 211.513 285.043 211.883 284.112 212.622C283.208 213.362 282.756 214.32 282.756 215.498H291.549ZM301.527 224.291H298.324V202.967H301.527V224.291Z" fill="#002538"/>
</svg>
